<svg width="33" height="32" viewBox="0 0 33 32" fill="none" xmlns="http://www.w3.org/2000/svg">
<path d="M23.3 10.3951H13.7V9.19755C13.7 8.59877 13.1 8 12.5 8C11.78 8 11.3 8.59877 11.3 9.19755V10.3951H1.7C0.98 10.3951 0.5 10.9939 0.5 11.5926V25.9632C0.5 26.6817 0.98 27.1608 1.7 27.1608H7.1L5.42 30.1546C5.18 30.7534 5.3 31.4719 5.9 31.8312C6.5 32.0707 7.22 31.951 7.58 31.3522L9.86 27.1608H15.14L17.42 31.3522C17.78 31.951 18.62 32.1905 19.1 31.8312C19.7 31.4719 19.94 30.7534 19.58 30.1546L17.9 27.1608H23.3C23.9 27.1608 24.5 26.6817 24.5 25.9632V11.5926C24.5 10.8741 23.9 10.3951 23.3 10.3951Z" fill="black" fill-opacity="0.25"/>
<rect x="17" width="16" height="16" rx="8" fill="url(#paint0_linear_3400_2903)"/>
<path fill-rule="evenodd" clip-rule="evenodd" d="M22.2 6.41156C21.9647 6.42593 21.7977 6.45823 21.6552 6.53084C21.4294 6.64589 21.2458 6.82947 21.1308 7.05526C21 7.31195 21 7.64799 21 8.32005V10.08C21 10.7521 21 11.0881 21.1308 11.3448C21.2458 11.5706 21.4294 11.7542 21.6552 11.8693C21.9119 12 22.2479 12 22.92 12H27.08C27.7521 12 28.0881 12 28.3448 11.8693C28.5706 11.7542 28.7542 11.5706 28.8692 11.3448C29 11.0881 29 10.7521 29 10.08V8.32005C29 7.64799 29 7.31195 28.8692 7.05526C28.7542 6.82947 28.5706 6.64589 28.3448 6.53084C28.2023 6.45823 28.0353 6.42593 27.8 6.41156V5.60005C27.8 4.05365 26.5464 2.80005 25 2.80005C23.4536 2.80005 22.2 4.05365 22.2 5.60005L22.2 6.41156ZM26.6 6.40005H23.4L23.4 5.60005C23.4 4.71639 24.1163 4.00005 25 4.00005C25.8837 4.00005 26.6 4.71639 26.6 5.60005V6.40005Z" fill="white"/>
<defs>
<linearGradient id="paint0_linear_3400_2903" x1="9" y1="8" x2="25" y2="24" gradientUnits="userSpaceOnUse">
<stop stop-color="#B1B6BD"/>
<stop offset="1" stop-color="#99A2AD"/>
</linearGradient>
</defs>
</svg>
