<svg width="24" height="24" viewBox="0 0 24 24" fill="none" xmlns="http://www.w3.org/2000/svg">
<rect width="24" height="24" rx="12" fill="url(#paint0_linear_3555_811)"/>
<path fill-rule="evenodd" clip-rule="evenodd" d="M7.8 9.61747C7.44701 9.63902 7.19657 9.68747 6.98282 9.79638C6.64413 9.96896 6.36876 10.2443 6.19619 10.583C6 10.9681 6 11.4721 6 12.4802V15.1202C6 16.1283 6 16.6323 6.19619 17.0174C6.36876 17.3561 6.64413 17.6314 6.98282 17.804C7.36786 18.0002 7.87191 18.0002 8.88 18.0002H15.12C16.1281 18.0002 16.6321 18.0002 17.0172 17.804C17.3559 17.6314 17.6312 17.3561 17.8038 17.0174C18 16.6323 18 16.1283 18 15.1202V12.4802C18 11.4721 18 10.9681 17.8038 10.583C17.6312 10.2443 17.3559 9.96896 17.0172 9.79638C16.8034 9.68747 16.553 9.63902 16.2 9.61747V8.4002C16.2 6.0806 14.3196 4.2002 12 4.2002C9.6804 4.2002 7.8 6.0806 7.8 8.4002L7.8 9.61747ZM14.4 9.60019H9.6L9.6 8.4002C9.6 7.07471 10.6745 6.0002 12 6.0002C13.3255 6.0002 14.4 7.07471 14.4 8.4002V9.60019Z" fill="white"/>
<defs>
<linearGradient id="paint0_linear_3555_811" x1="-12" y1="12" x2="12" y2="36" gradientUnits="userSpaceOnUse">
<stop stop-color="#B1B6BD"/>
<stop offset="1" stop-color="#99A2AD"/>
</linearGradient>
</defs>
</svg>
